<svg xmlns="http://www.w3.org/2000/svg" viewBox="0 0 11 11" shape-rendering="crispEdges"><rect x="9" y="0" width="1" height="1" fill="#0b0a14"/><rect x="10" y="0" width="1" height="1" fill="#0b0a14"/><rect x="8" y="1" width="1" height="1" fill="#0b0a14"/><rect x="9" y="1" width="1" height="1" fill="#E867EA"/><rect x="10" y="1" width="1" height="1" fill="#0b0a14"/><rect x="7" y="2" width="1" height="1" fill="#0b0a14"/><rect x="8" y="2" width="1" height="1" fill="#E867EA"/><rect x="9" y="2" width="1" height="1" fill="#E867EA"/><rect x="10" y="2" width="1" height="1" fill="#0b0a14"/><rect x="6" y="3" width="1" height="1" fill="#0b0a14"/><rect x="7" y="3" width="1" height="1" fill="#E867EA"/><rect x="8" y="3" width="1" height="1" fill="#E867EA"/><rect x="9" y="3" width="1" height="1" fill="#0b0a14"/><rect x="5" y="4" width="1" height="1" fill="#0b0a14"/><rect x="6" y="4" width="1" height="1" fill="#E867EA"/><rect x="7" y="4" width="1" height="1" fill="#E867EA"/><rect x="8" y="4" width="1" height="1" fill="#f2f0ff"/><rect x="9" y="4" width="1" height="1" fill="#0b0a14"/><rect x="4" y="5" width="1" height="1" fill="#0b0a14"/><rect x="5" y="5" width="1" height="1" fill="#E867EA"/><rect x="6" y="5" width="1" height="1" fill="#E867EA"/><rect x="7" y="5" width="1" height="1" fill="#f2f0ff"/><rect x="8" y="5" width="1" height="1" fill="#0b0a14"/><rect x="3" y="6" width="1" height="1" fill="#0b0a14"/><rect x="4" y="6" width="1" height="1" fill="#E867EA"/><rect x="5" y="6" width="1" height="1" fill="#E867EA"/><rect x="6" y="6" width="1" height="1" fill="#f2f0ff"/><rect x="7" y="6" width="1" height="1" fill="#0b0a14"/><rect x="2" y="7" width="1" height="1" fill="#0b0a14"/><rect x="3" y="7" width="1" height="1" fill="#E867EA"/><rect x="4" y="7" width="1" height="1" fill="#f2f0ff"/><rect x="5" y="7" width="1" height="1" fill="#f2f0ff"/><rect x="6" y="7" width="1" height="1" fill="#0b0a14"/><rect x="2" y="8" width="1" height="1" fill="#0b0a14"/><rect x="3" y="8" width="1" height="1" fill="#f2f0ff"/><rect x="4" y="8" width="1" height="1" fill="#0b0a14"/><rect x="5" y="8" width="1" height="1" fill="#0b0a14"/><rect x="1" y="9" width="1" height="1" fill="#0b0a14"/><rect x="2" y="9" width="1" height="1" fill="#0b0a14"/><rect x="0" y="10" width="1" height="1" fill="#0b0a14"/><rect x="1" y="10" width="1" height="1" fill="#0b0a14"/></svg>